<svg xmlns="http://www.w3.org/2000/svg" version="1.1" xmlns:xlink="http://www.w3.org/1999/xlink" width="512" height="512" x="0" y="0" viewBox="0 0 512 512" style="enable-background:new 0 0 512 512" xml:space="preserve" class=""><g><path fill-rule="evenodd" d="M256 16.95c57.32 0 103.78 46.46 103.78 103.78S313.32 224.51 256 224.51s-103.78-46.46-103.78-103.78S198.68 16.95 256 16.95zM133.9 238.03c4.37-7.57 1.74-17.41-5.83-21.78l-22.69-13.1c-7.64-4.41-17.57-1.75-21.98 5.89L18.29 321.82c-4.08 8.19-2.57 17.45 5.74 22.24l22.69 13.1c7.57 4.37 17.41 1.74 21.78-5.83 21.8-37.76 43.6-75.52 65.4-113.29zm96.61 147.54c-8.35-4.63-16.89-1.36-21.88 6.18l-32.32 55.99c-4.37 7.86-2.49 17.36 5.66 22.28 7.86 4.28 17.49 1.56 21.79-5.88 10.82-18.93 21.82-37.78 32.72-56.67 4.54-7.4 1.52-17.57-5.97-21.9zm-117.3 35.78c-8.61-5.19-9.54-13.79-5.66-22.28 6.94-12.03 13.89-24.05 20.83-36.08 4.31-7.47 14.03-10.16 21.84-5.83 8.59 5.18 9.49 13.79 5.62 22.25l-20.67 35.8c-5.04 7.64-13.63 10.68-21.95 6.14zm298.8-20.03c-4.45 7.69-14.33 10.35-21.92 5.97-17.1-9.87-34.2-19.74-51.29-29.61a4.979 4.979 0 0 0-6.8 1.84 4.979 4.979 0 0 0 1.84 6.8l37.56 21.69c7.55 5.01 10.78 13.6 6.18 21.88-4.45 7.69-14.33 10.35-21.92 5.97-12.61-7.28-25.23-14.56-37.84-21.85a4.979 4.979 0 0 0-6.8 1.84 4.979 4.979 0 0 0 1.84 6.8l24.1 13.92c7.57 5.01 10.87 13.76 6.12 21.99-4.26 7.37-14.43 10.41-21.83 5.86l-24.38-14.08a4.99 4.99 0 0 0-6.82 1.82 4.99 4.99 0 0 0 1.82 6.82l10.93 6.31c7.49 4.33 10.18 14.04 5.92 21.72-4.45 7.69-14.33 10.35-21.92 5.97l-29.79-17.2 16.66-28.85c7.22-12.46 2.77-28.39-9.65-35.55-5.46-3.05-11.38-3.96-16.98-3.05 4.26-11.76-.56-25.03-11.58-31.38-8.96-5.02-19.85-4.35-28.01 1.51-1.71-6.27-5.74-11.91-12.11-15.7-9.02-4.98-19.73-4.55-28.09 1.46-1.74-6.38-5.89-12.12-12.05-15.68-12.4-7.14-28.31-2.86-35.45 9.52l-13.27 22.98c-4.18-4.2-8.06-8.56-11.83-13.2-4.57-5.63-8.98-11.69-13.55-18.39l56.57-97.98c19.7 10.42 38.04 13.79 55.3 16.97 6.3 1.16 12.46 2.29 18.44 3.75l-24.22 24.22c-6.46 6.46-6.46 17.09 0 23.55 4.85 4.85 13.57 8.7 23.1 9.18 9.52.47 19.96-2.33 28.35-10.72l15.27-15.27 20.02.6c18.7 18.98 37.63 27.59 54.17 30.86l77.73 44.88c7.55 5.01 10.78 13.6 6.18 21.88zm-221.63-29.94c7.7 4.64 10.22 14.38 5.9 21.87l-28.83 49.93c-4.36 7.55-14.14 10.14-21.73 5.92-7.7-4.45-10.35-14.33-5.97-21.92l28.59-49.53c5.25-7.37 13.09-11.15 22.03-6.28zm68.76 48.67c7.28 4.39 10.5 14.37 5.9 21.85l-21.06 36.48c-4.38 7.58-14.25 10.24-21.83 5.86-7.41-4.28-10.14-13.82-6.13-21.37l21.16-36.65c5.06-7.5 13.31-10.9 21.97-6.18zm71.59-95.11c25.45 4.69 43.68-4.33 43.77-4.37 2.48-1.19 5.45-.14 6.64 2.34s.14 5.45-2.34 6.64c-.07.03-11.18 5.53-28.13 6.53l60.42 34.87c.82.47 1.6.98 2.35 1.53 6.28-7.24 11.95-14.95 17.49-23.08l-56.57-97.99c-2.1 1.12-4.17 2.14-6.2 3.08-3.5 1.62-6.94 3.03-10.33 4.28-6.36 2.33-12.71 3.42-19.06 3.26-6.36-.16-12.65-1.56-18.89-4.22l-10.18-4.33c-8.96-3.82-17.71-4.44-27.12-1.92l-39.02 10.46c-7.47 2-13.18 5.3-18.65 10.78l-30.62 30.62c-2.57 2.57-2.57 6.84 0 9.41 3.3 3.3 9.51 5.94 16.5 6.28 7.01.35 14.68-1.7 20.81-7.83l16.78-16.78c.97-.97 2.31-1.48 3.67-1.45l24.02.72c1.32-.01 2.65.5 3.64 1.53 17.59 18.36 35.3 26.51 51.05 29.61zm112.78 26.38c4.37 7.57 14.21 10.21 21.78 5.84l22.69-13.1c8.3-4.79 9.82-14.05 5.74-22.24l-65.11-112.78c-4.41-7.64-14.34-10.3-21.98-5.89l-22.69 13.1c-7.57 4.37-10.21 14.21-5.83 21.78l65.4 113.28zM189.88 120.44l23.6 38.46c4.32 7.08 13.68 8.84 20.35 4.03l79.29-57.94c6.28-4.6 7.63-13.42 3.03-19.69s-13.42-7.63-19.69-3.03l-66.94 48.92-15.59-25.41c-4.05-6.64-12.72-8.74-19.36-4.69s-8.74 12.72-4.69 19.36z" fill="#2563eb" opacity="1" data-original="#000000" class=""></path></g></svg>